<svg id="Layer_1" data-name="Layer 1" xmlns="http://www.w3.org/2000/svg" viewBox="0 0 130.5 36.76"><defs><style>.cls-1{fill:#fc0200}.cls-2{fill:#393b46}.cls-4{opacity:0}</style></defs><path class="cls-1" d="m16.86.1.18 16.31 13.72-7.92L16.86.1zM16 19.31l15.21 8.84-14.9 8.61-15.28-8.81L16 19.31zM15.01 17.6 14.96 0 0 8.64l.04 17.6 14.97-8.64z"/><path class="cls-2" d="M48.49 27.26a6.81 6.81 0 0 1-3.71-1 6.71 6.71 0 0 1-2.43-2.66 8.35 8.35 0 0 1 0-7.42 6.6 6.6 0 0 1 6.14-3.63 7 7 0 0 1 4.31 1.31 6.38 6.38 0 0 1 2.41 3.39H52.9a4.38 4.38 0 0 0-1.55-2 4.31 4.31 0 0 0-2.58-.77 4.92 4.92 0 0 0-4.53 2.71 6.1 6.1 0 0 0 0 5.4 4.91 4.91 0 0 0 4.53 2.72 4.31 4.31 0 0 0 2.58-.77 4.4 4.4 0 0 0 1.55-2h2.31A6.46 6.46 0 0 1 52.8 26a7.09 7.09 0 0 1-4.31 1.26ZM65 27.26a7 7 0 0 1-3.76-1 6.55 6.55 0 0 1-2.45-2.66 8.05 8.05 0 0 1-.85-3.7 8 8 0 0 1 .85-3.72 6.59 6.59 0 0 1 2.45-2.65 7.74 7.74 0 0 1 7.54 0 6.61 6.61 0 0 1 2.43 2.65 8.43 8.43 0 0 1 0 7.42 6.57 6.57 0 0 1-2.43 2.66 7 7 0 0 1-3.78 1Zm0-1.94a4.54 4.54 0 0 0 4.36-2.72 6.68 6.68 0 0 0 0-5.4A4.55 4.55 0 0 0 65 14.49a4.78 4.78 0 0 0-2.68.74 4.73 4.73 0 0 0-1.68 2 6.68 6.68 0 0 0 0 5.4A4.57 4.57 0 0 0 65 25.32ZM81.76 27.26a6.56 6.56 0 0 1-6-3.65 8.05 8.05 0 0 1-.85-3.7 8 8 0 0 1 .85-3.72 6.54 6.54 0 0 1 6-3.63 6.29 6.29 0 0 1 3 .68 5.82 5.82 0 0 1 2.06 1.85v-8H89V27h-2.14v-2.25a5.84 5.84 0 0 1-2.06 1.82 6.29 6.29 0 0 1-3.04.69Zm.29-1.94a4.73 4.73 0 0 0 2.69-.74 4.79 4.79 0 0 0 1.66-2 6.68 6.68 0 0 0 0-5.4 4.52 4.52 0 0 0-4.35-2.71 4.75 4.75 0 0 0-4.45 2.73 6.37 6.37 0 0 0 0 5.4 4.73 4.73 0 0 0 4.45 2.72ZM93.53 10.39V7.6h2.3v2.79ZM93.61 27V12.78h2.14V27ZM100.36 27V7.09h2.14V27ZM113.13 27.26a6.56 6.56 0 0 1-6-3.65 8.43 8.43 0 0 1 0-7.42 6.54 6.54 0 0 1 6-3.63 6.25 6.25 0 0 1 3 .68 5.85 5.85 0 0 1 2.07 1.85v-2.31h2.13V27h-2.13v-2.25a5.87 5.87 0 0 1-2.07 1.82 6.25 6.25 0 0 1-3 .69Zm.28-1.94a4.54 4.54 0 0 0 4.36-2.72 6.68 6.68 0 0 0 0-5.4 4.55 4.55 0 0 0-4.36-2.71A4.75 4.75 0 0 0 109 17.2a6.37 6.37 0 0 0 0 5.4 4.73 4.73 0 0 0 4.44 2.72ZM125 27V12.78h2.14v3.51a5.52 5.52 0 0 1 1.39-2.22 5.42 5.42 0 0 1 1.56-1.07 5.29 5.29 0 0 1 2.27-.44h.14v2.13h-.26a4.45 4.45 0 0 0-2.75.87 5.7 5.7 0 0 0-1.76 2.25 7.18 7.18 0 0 0-.61 3V27Z" transform="translate(-2.5 -1.62)"/><path d="M125 27V12.78h2.14v3.51a5.52 5.52 0 0 1 1.39-2.22 5.42 5.42 0 0 1 1.56-1.07 5.29 5.29 0 0 1 2.27-.44h.14v2.13h-.26a4.45 4.45 0 0 0-2.75.87 5.7 5.7 0 0 0-1.76 2.25 7.18 7.18 0 0 0-.61 3V27Zm-11.57-1.71a4.54 4.54 0 0 0 4.36-2.72 6.68 6.68 0 0 0 0-5.4 4.55 4.55 0 0 0-4.36-2.71A4.75 4.75 0 0 0 109 17.2a6.37 6.37 0 0 0 0 5.4 4.73 4.73 0 0 0 4.44 2.72Zm-.28 1.94a6.56 6.56 0 0 1-6-3.65 8.43 8.43 0 0 1 0-7.42 6.54 6.54 0 0 1 6-3.63 6.22 6.22 0 0 1 3 .68 5.77 5.77 0 0 1 2.07 1.85v-2.28h2.13V27h-2.13v-2.25a5.79 5.79 0 0 1-2.07 1.82 6.22 6.22 0 0 1-3.02.69ZM100.36 27V7.09h2.14V27Zm-6.75 0V12.78h2.14V27Zm-.08-16.64V7.6h2.3v2.79ZM82.05 25.32a4.73 4.73 0 0 0 2.69-.74 4.79 4.79 0 0 0 1.66-2 6.68 6.68 0 0 0 0-5.4 4.52 4.52 0 0 0-4.35-2.71 4.75 4.75 0 0 0-4.45 2.73 6.37 6.37 0 0 0 0 5.4 4.73 4.73 0 0 0 4.45 2.72Zm-.29 1.94a6.56 6.56 0 0 1-6-3.65 8.05 8.05 0 0 1-.85-3.7 8 8 0 0 1 .85-3.72 6.54 6.54 0 0 1 6-3.63 6.29 6.29 0 0 1 3 .68 5.82 5.82 0 0 1 2.06 1.85v-8H89V27h-2.14v-2.25a5.84 5.84 0 0 1-2.06 1.82 6.29 6.29 0 0 1-3.04.69ZM65 25.32a4.54 4.54 0 0 0 4.36-2.72 6.68 6.68 0 0 0 0-5.4A4.55 4.55 0 0 0 65 14.49a4.78 4.78 0 0 0-2.68.74 4.73 4.73 0 0 0-1.68 2 6.68 6.68 0 0 0 0 5.4A4.57 4.57 0 0 0 65 25.32Zm0 1.94a7 7 0 0 1-3.76-1 6.55 6.55 0 0 1-2.45-2.66 8.05 8.05 0 0 1-.85-3.7 8 8 0 0 1 .85-3.72 6.59 6.59 0 0 1 2.45-2.65 7.74 7.74 0 0 1 7.54 0 6.61 6.61 0 0 1 2.43 2.65 8.43 8.43 0 0 1 0 7.42 6.57 6.57 0 0 1-2.43 2.66 7 7 0 0 1-3.78 1Zm-16.46 0a6.81 6.81 0 0 1-3.71-1 6.71 6.71 0 0 1-2.43-2.66 8.35 8.35 0 0 1 0-7.42 6.6 6.6 0 0 1 6.14-3.63 7 7 0 0 1 4.31 1.31 6.38 6.38 0 0 1 2.41 3.39H52.9a4.38 4.38 0 0 0-1.55-2 4.31 4.31 0 0 0-2.58-.77 4.92 4.92 0 0 0-4.53 2.71 6.1 6.1 0 0 0 0 5.4 4.91 4.91 0 0 0 4.53 2.72 4.31 4.31 0 0 0 2.58-.77 4.4 4.4 0 0 0 1.55-2h2.31A6.46 6.46 0 0 1 52.8 26a7.09 7.09 0 0 1-4.31 1.26Z" transform="translate(-2.5 -1.62)" style="fill:none;stroke:#383b45"/></svg>